<svg xmlns="http://www.w3.org/2000/svg" viewBox="0 0 100 125" x="0px" y="0px"><path d="M50.4873,24.09229h-.709v-5.4082h.709ZM32.30469,40.03955a1.90918,1.90918,0,1,1,1.90918,1.90918A1.91133,1.91133,0,0,1,32.30469,40.03955Zm.709,0a1.2002,1.2002,0,1,0,1.2002-1.2002A1.20146,1.20146,0,0,0,33.01367,40.03955Zm31.12891,0a1.90918,1.90918,0,1,1,1.90918,1.90918A1.91133,1.91133,0,0,1,64.14258,40.03955Zm.709,0a1.2002,1.2002,0,1,0,1.2002-1.2002A1.20146,1.20146,0,0,0,64.85156,40.03955ZM32.78027,81.61914H26.75293v-7.6333a3.01367,3.01367,0,0,1,6.02734,0Zm-3.36816-3.35986h-1.9502v2.65088h1.9502Zm0-3.35986h-1.9502v2.65088h1.9502Zm0-3.18243a2.30214,2.30214,0,0,0-1.9502,2.26886v.20459h1.9502Zm2.65918,6.5423h-1.9502v2.65088h1.9502Zm0-3.35986h-1.9502v2.65088h1.9502Zm0-.91357a2.30214,2.30214,0,0,0-1.9502-2.26886v2.47345h1.9502Zm14.29688,7.6333H40.34082v-7.6333a3.01367,3.01367,0,0,1,6.02734,0ZM43,78.25928H41.0498v2.65088H43Zm0-3.35986H41.0498v2.65088H43ZM43,71.717a2.30214,2.30214,0,0,0-1.9502,2.26886v.20459H43Zm2.65918,6.5423H43.709v2.65088h1.9502Zm0-3.35986H43.709v2.65088h1.9502Zm0-.91357A2.30214,2.30214,0,0,0,43.709,71.717v2.47345h1.9502Zm14.29688,7.6333H53.92871v-7.6333a3.01367,3.01367,0,0,1,6.02734,0Zm-3.36816-3.35986H54.6377v2.65088h1.9502Zm0-3.35986H54.6377v2.65088h1.9502Zm0-3.18243a2.30214,2.30214,0,0,0-1.9502,2.26886v.20459h1.9502Zm2.65918,6.5423h-1.9502v2.65088h1.9502Zm0-3.35986h-1.9502v2.65088h1.9502Zm0-.91357a2.30214,2.30214,0,0,0-1.9502-2.26886v2.47345h1.9502Zm14.29688,7.6333H67.5166v-7.6333a3.01367,3.01367,0,0,1,6.02734,0Zm-3.36816-3.35986h-1.9502v2.65088h1.9502Zm0-3.35986h-1.9502v2.65088h1.9502Zm0-3.18243a2.30214,2.30214,0,0,0-1.9502,2.26886v.20459h1.9502Zm2.65918,6.5423h-1.9502v2.65088H72.835Zm0-3.35986h-1.9502v2.65088H72.835Zm0-.91357a2.30214,2.30214,0,0,0-1.9502-2.26886v2.47345H72.835Zm15.2207-16.26318a37.69186,37.69186,0,0,1-3.8125,16.558v.05286h-.0271A38.16315,38.16315,0,0,1,73.18945,87.80261v.02649h-.03369a37.90542,37.90542,0,1,1-45.29-60.78748,1.97752,1.97752,0,0,1,1.2124-3.73206,2.53321,2.53321,0,0,1,4.50116.29834A37.63441,37.63441,0,0,1,43.67773,20.3562V15.82666h.01794a6.48537,6.48537,0,0,1,6.11487-6.11487V5h.709V9.71179a6.48973,6.48973,0,0,1,6.13184,6.46936h-.06445v4.17126A37.75367,37.75367,0,0,1,88.05566,57.72266ZM56.58691,31.18256l6.42035,2.76617H73.32617v4.44586L84.4259,43.17688a37.00787,37.00787,0,0,0-27.839-22.10376v7.36047h.81934v.709h-.81934Zm8.06592,3.47516,7.96436,3.43146V34.65771Zm-12.99792-24.053a9.50751,9.50751,0,0,1,1.3891,5.22192h2.88043A5.781,5.781,0,0,0,51.65491,10.60474Zm1.35291,5.93091v9.28857h2.87012V16.53564Zm-5.00568-.709h4.32581c-.07837-3.20862-1.16986-5.42383-2.1629-5.42383S48.08051,12.618,48.00214,15.82666Zm-.03632.709v9.28857h4.333V16.53564Zm-3.56116-.709h2.88141a9.50671,9.50671,0,0,1,1.38922-5.222A5.781,5.781,0,0,0,44.40466,15.82666Zm-.01794,9.99756h2.87012V16.53564H44.38672Zm0,2.60938H55.87793V26.5332H44.38672Zm7.46539.709,4.02582,1.7345v-1.7345Zm-7.46539,1.73486,4.02673-1.73486H44.38672ZM17.125,43.395H37.87335a13.15957,13.15957,0,0,1,24.498,0H83.13965L50.13281,29.17432Zm39.87891-.0708L56.9,43.395h4.7041a12.44745,12.44745,0,0,0-22.96375,0h4.5517a8.327,8.327,0,0,1,13.81183-.0708ZM52.5625,40.80817V43.395H56.163A7.60074,7.60074,0,0,0,52.5625,40.80817ZM50.12207,40.394a7.623,7.623,0,0,0-1.71.20184V43.395h3.44141V40.59961A7.60507,7.60507,0,0,0,50.12207,40.394Zm-6.04126,3.001h3.62231V40.801A7.58692,7.58692,0,0,0,44.08081,43.395Zm-8.46838-8.7373h-7.964v3.43115ZM28.707,26.52734h5.2041a1.08507,1.08507,0,0,0,1.085-1.0835A1.10783,1.10783,0,0,0,33.50781,24.438l-.38184.15234-.09375-.3999a1.82758,1.82758,0,0,0-3.44824-.31982l-.13477.30225-.31055-.11328a1.27161,1.27161,0,1,0-.43164,2.46777ZM15.91223,43.14526l11.02722-4.75092V33.94873h9.39v-.00757h.94623l6.4021-2.7583V29.14258H42.8584v-.709h.81934V21.0788a36.91039,36.91039,0,0,0-8.94739,2.78546,1.78289,1.78289,0,0,1-.81921,3.37207H28.79187A37.26663,37.26663,0,0,0,15.91223,43.14526Zm-.15149,3.81958h68.7207V44.104H15.76074Zm65.78906,15.855L81.00586,64.751H84.2168l-.56152-1.93115Zm1.98438-.709V50.314H81.63574V62.11084Zm.68262-14.437H81.00586L81.5498,49.605h2.10547Zm-3.94684,0h-.60406l-.69421,2.38477-.01855.01392V62.35229l.01855.01392.69421,2.38477H80.27l.6568-2.33325V50.00708Zm-4.01019,15.146L75.71582,64.751h3.21094l-.56152-1.93115Zm1.98438-.709V50.314H76.3457V62.11084Zm.68262-14.437H75.71582l.54395,1.93115h2.10547Zm-3.94684,0H66.078l-.69421,2.38477-.01855.01392V62.35229l.01855.01392L66.078,64.751h8.90192l.6568-2.33325V50.00708Zm-12.308,15.146-.543,1.93115h3.21l-.56152-1.93115Zm1.98438-.709V50.314H62.75781V62.11084Zm.68262-14.437h-3.21l.543,1.93115h2.10547Zm-3.9458,0H52.49023l-.69336,2.38477-.01953.01465V62.35156l.01953.01465.69336,2.38477h8.90283l.65576-2.3327V50.00653ZM49.084,62.81982,48.541,64.751h3.21l-.56055-1.93115Zm1.98438-.709V50.314H49.16992V62.11084Zm.68262-14.437h-3.21l.543,1.93115h2.10645Zm-3.9458,0H38.90234L38.209,50.05859l-.01953.01465V62.35156l.01953.01465.69336,2.38477h8.90283l.65576-2.3327V50.00653Zm-12.30908,15.146-.543,1.93115h3.21l-.56055-1.93115Zm1.98438-.709V50.314H35.582V62.11084Zm.68262-14.437h-3.21l.543,1.93115h2.10645Zm-3.9458,0H25.31445l-.69336,2.38477-.01953.01465V62.35156l.01953.01465.69336,2.38477h8.90283l.65576-2.3327V50.00653ZM21.9082,62.81982l-.543,1.93115h3.21l-.56055-1.93115Zm1.98438-.709V50.314H21.99414V62.11084Zm.68262-14.437h-3.21l.543,1.93115h2.10645Zm-3.9458,0h-.605l-.69336,2.38477-.01953.01465V62.35156l.71289,2.39941h.605l.65576-2.3327V50.00653Zm-4.01123,15.146-.543,1.93115h3.21l-.56055-1.93115Zm1.98438-.709V50.314H16.7041V62.11084Zm.68262-14.437h-3.21l.543,1.93115h2.10645Zm-3.29,23.68866-.65576-2.3327h-.2876V64.751h.2876l.65576-2.3327V50.00653l-.65576-2.3327h-.2876V45.36a37.0126,37.0126,0,0,0,.94336,27.16113Zm2.60742.30743H16.7041v2.38837a37.18159,37.18159,0,0,0,1.89844,3.39752Zm.68262-2.64014h-3.21l.543,1.93115h2.10645Zm2,2.3327-.65576-2.3327h-.605l-.69336,2.38477-.01953.01465v7.127c.61841.91193,1.27893,1.79279,1.97363,2.64478Zm2.72949-.40155.56055-1.93115h-3.21l.543,1.93115Zm-2.02051.709v9.24023h1.89844V71.66992ZM23.37726,83.5498H24.5752l-.56055-1.93066H21.9082l-.067.24017Q22.58356,82.72815,23.37726,83.5498ZM34.873,90.1618l-.65576-2.3327H28.295a37.22551,37.22551,0,0,0,6.578,3.822Zm2.60742.30743H35.582v1.50293q.93622.39926,1.89844.74719Zm.68262-2.64014h-3.21l.543,1.93115h2.10645ZM43,93.69873H41.0498v.11243c.64337.162,1.29413.30463,1.9502.43256Zm0-3.18243a2.30214,2.30214,0,0,0-1.9502,2.26886v.20459H43Zm2.65918,3.18243H43.709v.67194q.96707.1691,1.9502.288Zm0-.91357A2.30214,2.30214,0,0,0,43.709,90.5163v2.47345h1.9502Zm2.80176-2.62335-.65576-2.3327H38.90234L38.209,90.21387l-.01953.01465v2.7312q1.06238.36108,2.15137.66071v-.83527a3.01367,3.01367,0,0,1,6.02734,0v1.962c.69189.06982,1.39038.11615,2.09277.1474Zm2.60742.30743H49.16992V94.9126c.321.00824.64.02441.96289.02441.31372,0,.62366-.016.93555-.02374ZM51.751,87.8291h-3.21l.543,1.93115h2.10645Zm4.83691,5.86963H54.6377v.95587q.98337-.11929,1.9502-.28961Zm0-3.18243a2.30214,2.30214,0,0,0-1.9502,2.26886v.20459h1.9502Zm2.65918,3.18243h-1.9502V94.238c.65613-.12848,1.30682-.27161,1.9502-.4342Zm0-.91357a2.30214,2.30214,0,0,0-1.9502-2.26886v2.47345h1.9502Zm2.80176-2.62335-.65576-2.3327H52.49023l-.69336,2.38477-.01953.01465v4.66675c.72211-.03162,1.44037-.07812,2.15137-.15051V92.78516a3.01367,3.01367,0,0,1,6.02734,0v.82623q1.05972-.29041,2.09277-.64258Zm2.60742.30743H62.75781v2.25922q.96112-.34772,1.89844-.74414Zm.68262-2.64014h-3.21l.543,1.93115h2.10547Zm6.63092,0H66.078l-.69421,2.38477-.01855.01392v1.43549A37.21645,37.21645,0,0,0,71.96979,87.8291Zm4.21942-3.57031H24.07556A37.516,37.516,0,0,0,27.354,87.12012H72.91083A37.52415,37.52415,0,0,0,76.18921,84.25879ZM24.62109,81.16553l.6933,2.38428h8.90277l.65588-2.3327V71.36249l-.65576-2.3327H25.31445l-.69336,2.38477-.01953.01465v9.72168ZM37.60254,70.96094l.56055-1.93115h-3.21l.543,1.93115Zm-2.02051.709v9.24023h1.89844V71.66992ZM34.95313,83.5498h3.21l-.56055-1.93066H35.49609ZM38.209,81.16553l.6933,2.38428h8.90277l.65588-2.3327V71.36249l-.65576-2.3327H38.90234L38.209,71.41455l-.01953.01465v9.72168ZM51.19043,70.96094l.56055-1.93115h-3.21l.543,1.93115Zm-2.02051.709v9.24023h1.89844V71.66992ZM48.541,83.5498h3.21l-.56055-1.93066H49.084Zm3.25586-2.38428.6933,2.38428h8.90277l.65588-2.3327V71.36249l-.65576-2.3327H52.49023l-.69336,2.38477-.01953.01465v9.72168ZM64.77734,70.96094l.56152-1.93115h-3.21l.543,1.93115Zm-2.01953.709v9.24023h1.89844V71.66992ZM62.12891,83.5498h3.21l-.56152-1.93066H62.67188Zm3.25488-2.38428L66.078,83.5498h8.90192l.6568-2.33276V71.363l-.6568-2.33325H66.078l-.69421,2.38477-.01855.01392v9.72314Zm13.0481.68408-.06665-.23047H76.25977l-.54395,1.93066h1.17169Q77.68539,82.72354,78.43188,81.84961Zm-.18774-.93945V71.66992H76.3457v9.24023Zm.68262-11.88037H75.71582l.54395,1.93115h2.10547Zm2,2.33325L80.27,69.02979h-.60406l-.69421,2.38477-.01855.01392v9.72314l.01855.01392.00964.03314q1.02667-1.25931,1.94543-2.60535Zm2.60742.30688H81.63574V77.497a37.18759,37.18759,0,0,0,1.89844-3.38733Zm.68262-2.64014H81.00586l.54395,1.93115h2.10547Zm.26465-.709V65.46H15.76074V68.3208Zm-.23828,4.25867a36.99136,36.99136,0,0,0,3.10352-14.85681,37.46729,37.46729,0,0,0-2.15625-12.5531v2.50427h-.2345l-.69421,2.38477-.01855.01392V62.35229l.01855.01392.69421,2.38477h.2345v4.27881h-.2345l-.69421,2.38477-.01855.01392ZM32.78027,62.81982H26.75293v-7.6333a3.01367,3.01367,0,1,1,6.02734,0ZM29.41211,59.46h-1.9502v2.65088h1.9502Zm0-3.35937h-1.9502V58.751h1.9502Zm0-3.18292a2.30214,2.30214,0,0,0-1.9502,2.26886v.20508h1.9502ZM32.07129,59.46h-1.9502v2.65088h1.9502Zm0-3.35937h-1.9502V58.751h1.9502Zm0-.91406a2.30214,2.30214,0,0,0-1.9502-2.26886V55.3916h1.9502Zm14.29688,7.6333H40.34082v-7.6333a3.01367,3.01367,0,1,1,6.02734,0ZM43,59.46H41.0498v2.65088H43Zm0-3.35937H41.0498V58.751H43Zm0-3.18292a2.30214,2.30214,0,0,0-1.9502,2.26886v.20508H43ZM45.65918,59.46H43.709v2.65088h1.9502Zm0-3.35937H43.709V58.751h1.9502Zm0-.91406a2.30214,2.30214,0,0,0-1.9502-2.26886V55.3916h1.9502Zm14.29688,7.6333H53.92871v-7.6333a3.01367,3.01367,0,1,1,6.02734,0ZM56.58789,59.46H54.6377v2.65088h1.9502Zm0-3.35937H54.6377V58.751h1.9502Zm0-3.18292a2.30214,2.30214,0,0,0-1.9502,2.26886v.20508h1.9502ZM59.24707,59.46h-1.9502v2.65088h1.9502Zm0-3.35937h-1.9502V58.751h1.9502Zm0-.91406a2.30214,2.30214,0,0,0-1.9502-2.26886V55.3916h1.9502Zm14.29688,7.6333H67.5166v-7.6333a3.01367,3.01367,0,1,1,6.02734,0ZM70.17578,59.46h-1.9502v2.65088h1.9502Zm0-3.35937h-1.9502V58.751h1.9502Zm0-3.18292a2.30214,2.30214,0,0,0-1.9502,2.26886v.20508h1.9502ZM72.835,59.46h-1.9502v2.65088H72.835Zm0-3.35937h-1.9502V58.751H72.835Zm0-.91406a2.30214,2.30214,0,0,0-1.9502-2.26886V55.3916H72.835Z"/><text x="0" y="115" fill="#000000" font-size="5px" font-weight="bold" font-family="'Helvetica Neue', Helvetica, Arial-Unicode, Arial, Sans-serif">Created by Befoolish</text><text x="0" y="120" fill="#000000" font-size="5px" font-weight="bold" font-family="'Helvetica Neue', Helvetica, Arial-Unicode, Arial, Sans-serif">from the Noun Project</text></svg>